<?xml version="1.0" encoding="UTF-8"?>
<svg viewBox="0 0 512 512" xmlns="http://www.w3.org/2000/svg" fill="none">
  <g transform="matrix(1.018795,0,0,1.019275,-704.224889,-976.582178)"><path d="M927.76,1266.318L927.76,1341.973C927.76,1374.567 901.298,1401.028 868.705,1401.028L691.539,1401.028L691.539,958.115L868.705,958.115C901.298,958.115 927.76,984.577 927.76,1017.17L927.76,1152.231C902.488,1158.893 883.831,1181.922 883.831,1209.274C883.831,1236.626 902.488,1259.655 927.76,1266.318Z" fill="#d0d0d0"/><path d="M957.874,1152.231L957.874,1076.575C957.874,1043.981 984.336,1017.52 1016.929,1017.52L1194.094,1017.52L1194.094,1460.433L1016.929,1460.433C984.336,1460.433 957.874,1433.971 957.874,1401.378L957.874,1266.318C983.146,1259.655 1001.803,1236.626 1001.803,1209.274C1001.803,1181.922 983.146,1158.893 957.874,1152.231Z" fill="#f0f0f0"/></g>
</svg>
